<mxfile host="app.diagrams.net" modified="2021-04-26T10:13:55.900Z" agent="5.0 (Windows NT 10.0; WOW64) AppleWebKit/537.36 (KHTML, like Gecko) Chrome/90.0.4430.85 Safari/537.36" etag="-IB85VubY45k1E0RRmr5" version="14.6.6" type="github">
  <diagram id="kgpKYQtTHZ0yAKxKKP6v" name="Page-1">
    <mxGraphModel dx="1178" dy="641" grid="1" gridSize="10" guides="1" tooltips="1" connect="1" arrows="1" fold="1" page="1" pageScale="1" pageWidth="850" pageHeight="1100" math="0" shadow="0">
      <root>
        <mxCell id="0" />
        <mxCell id="1" parent="0" />
        <mxCell id="3nuBFxr9cyL0pnOWT2aG-1" value="服务器" style="shape=umlLifeline;perimeter=lifelinePerimeter;container=1;collapsible=0;recursiveResize=0;rounded=0;shadow=0;strokeWidth=1;" parent="1" vertex="1">
          <mxGeometry x="120" y="80" width="100" height="640" as="geometry" />
        </mxCell>
        <mxCell id="3nuBFxr9cyL0pnOWT2aG-2" value="" style="points=[];perimeter=orthogonalPerimeter;rounded=0;shadow=0;strokeWidth=1;" parent="3nuBFxr9cyL0pnOWT2aG-1" vertex="1">
          <mxGeometry x="45" y="70" width="10" height="540" as="geometry" />
        </mxCell>
        <mxCell id="3nuBFxr9cyL0pnOWT2aG-3" value="顺丰数据" style="verticalAlign=bottom;startArrow=oval;endArrow=block;startSize=8;shadow=0;strokeWidth=1;" parent="3nuBFxr9cyL0pnOWT2aG-1" target="3nuBFxr9cyL0pnOWT2aG-2" edge="1">
          <mxGeometry relative="1" as="geometry">
            <mxPoint x="-15" y="70" as="sourcePoint" />
          </mxGeometry>
        </mxCell>
        <mxCell id="3nuBFxr9cyL0pnOWT2aG-4" value="" style="points=[];perimeter=orthogonalPerimeter;rounded=0;shadow=0;strokeWidth=1;" parent="3nuBFxr9cyL0pnOWT2aG-1" vertex="1">
          <mxGeometry x="50" y="120" width="10" height="50" as="geometry" />
        </mxCell>
        <mxCell id="3nuBFxr9cyL0pnOWT2aG-5" value="场景主页" style="shape=umlLifeline;perimeter=lifelinePerimeter;container=1;collapsible=0;recursiveResize=0;rounded=0;shadow=0;strokeWidth=1;" parent="1" vertex="1">
          <mxGeometry x="300" y="80" width="100" height="640" as="geometry" />
        </mxCell>
        <mxCell id="3nuBFxr9cyL0pnOWT2aG-6" value="" style="points=[];perimeter=orthogonalPerimeter;rounded=0;shadow=0;strokeWidth=1;" parent="3nuBFxr9cyL0pnOWT2aG-5" vertex="1">
          <mxGeometry x="45" y="80" width="10" height="140" as="geometry" />
        </mxCell>
        <mxCell id="Byw5GEfazyU8JiE87-R9-6" value="" style="html=1;points=[];perimeter=orthogonalPerimeter;" parent="3nuBFxr9cyL0pnOWT2aG-5" vertex="1">
          <mxGeometry x="45.05" y="249.97" width="10" height="50" as="geometry" />
        </mxCell>
        <mxCell id="Byw5GEfazyU8JiE87-R9-7" value="判断收寄件&lt;br&gt;同步UI显示" style="edgeStyle=orthogonalEdgeStyle;html=1;align=left;spacingLeft=2;endArrow=block;rounded=0;entryX=1;entryY=0;" parent="3nuBFxr9cyL0pnOWT2aG-5" target="Byw5GEfazyU8JiE87-R9-6" edge="1">
          <mxGeometry relative="1" as="geometry">
            <mxPoint x="50.05" y="239.97" as="sourcePoint" />
            <Array as="points">
              <mxPoint x="50.05" y="219.97" />
              <mxPoint x="75.05" y="219.97" />
              <mxPoint x="75.05" y="249.97" />
            </Array>
          </mxGeometry>
        </mxCell>
        <mxCell id="Byw5GEfazyU8JiE87-R9-13" value="" style="html=1;points=[];perimeter=orthogonalPerimeter;" parent="3nuBFxr9cyL0pnOWT2aG-5" vertex="1">
          <mxGeometry x="45.05" y="377" width="10" height="40" as="geometry" />
        </mxCell>
        <mxCell id="Byw5GEfazyU8JiE87-R9-14" value="主页消卡" style="edgeStyle=orthogonalEdgeStyle;html=1;align=left;spacingLeft=2;endArrow=block;rounded=0;entryX=1;entryY=0;" parent="3nuBFxr9cyL0pnOWT2aG-5" target="Byw5GEfazyU8JiE87-R9-13" edge="1">
          <mxGeometry relative="1" as="geometry">
            <mxPoint x="50.05" y="357" as="sourcePoint" />
            <Array as="points">
              <mxPoint x="50" y="350" />
              <mxPoint x="75" y="350" />
              <mxPoint x="75" y="377" />
            </Array>
          </mxGeometry>
        </mxCell>
        <mxCell id="Byw5GEfazyU8JiE87-R9-16" value="" style="html=1;points=[];perimeter=orthogonalPerimeter;" parent="3nuBFxr9cyL0pnOWT2aG-5" vertex="1">
          <mxGeometry x="45.05" y="437" width="10" height="110" as="geometry" />
        </mxCell>
        <mxCell id="Byw5GEfazyU8JiE87-R9-17" value="状态三天不更新&lt;br&gt;主页卡片消失&lt;br&gt;" style="edgeStyle=orthogonalEdgeStyle;html=1;align=left;spacingLeft=2;endArrow=block;rounded=0;entryX=1;entryY=0;" parent="3nuBFxr9cyL0pnOWT2aG-5" target="Byw5GEfazyU8JiE87-R9-16" edge="1">
          <mxGeometry relative="1" as="geometry">
            <mxPoint x="50.05" y="417" as="sourcePoint" />
            <Array as="points">
              <mxPoint x="75.05" y="417" />
            </Array>
          </mxGeometry>
        </mxCell>
        <mxCell id="Byw5GEfazyU8JiE87-R9-23" value="同步收寄状态和UI显示" style="html=1;verticalAlign=bottom;endArrow=block;entryX=-0.033;entryY=0.54;entryDx=0;entryDy=0;entryPerimeter=0;" parent="3nuBFxr9cyL0pnOWT2aG-5" edge="1">
          <mxGeometry width="80" relative="1" as="geometry">
            <mxPoint x="55" y="274.93" as="sourcePoint" />
            <mxPoint x="224.67000000000007" y="274.72999999999996" as="targetPoint" />
          </mxGeometry>
        </mxCell>
        <mxCell id="Byw5GEfazyU8JiE87-R9-27" value="" style="html=1;points=[];perimeter=orthogonalPerimeter;" parent="3nuBFxr9cyL0pnOWT2aG-5" vertex="1">
          <mxGeometry x="45.05" y="567" width="10" height="40" as="geometry" />
        </mxCell>
        <mxCell id="Byw5GEfazyU8JiE87-R9-28" value="按状态和更新时间排序" style="edgeStyle=orthogonalEdgeStyle;html=1;align=left;spacingLeft=2;endArrow=block;rounded=0;entryX=1;entryY=0;" parent="3nuBFxr9cyL0pnOWT2aG-5" target="Byw5GEfazyU8JiE87-R9-27" edge="1">
          <mxGeometry relative="1" as="geometry">
            <mxPoint x="50.05" y="547" as="sourcePoint" />
            <Array as="points">
              <mxPoint x="75.05" y="547" />
            </Array>
          </mxGeometry>
        </mxCell>
        <mxCell id="Byw5GEfazyU8JiE87-R9-31" value="同步数据" style="html=1;verticalAlign=bottom;endArrow=block;" parent="3nuBFxr9cyL0pnOWT2aG-5" edge="1">
          <mxGeometry x="0.0119" width="80" relative="1" as="geometry">
            <mxPoint x="55.05" y="586.9" as="sourcePoint" />
            <mxPoint x="223.05" y="587" as="targetPoint" />
            <mxPoint as="offset" />
          </mxGeometry>
        </mxCell>
        <mxCell id="F76CEWl78mpnGewwUQ9f-1" value="" style="html=1;points=[];perimeter=orthogonalPerimeter;" vertex="1" parent="3nuBFxr9cyL0pnOWT2aG-5">
          <mxGeometry x="45.05" y="320" width="10" height="30" as="geometry" />
        </mxCell>
        <mxCell id="F76CEWl78mpnGewwUQ9f-2" value="显示优化" style="edgeStyle=orthogonalEdgeStyle;html=1;align=left;spacingLeft=2;endArrow=block;rounded=0;entryX=1;entryY=0;" edge="1" target="F76CEWl78mpnGewwUQ9f-1" parent="3nuBFxr9cyL0pnOWT2aG-5">
          <mxGeometry relative="1" as="geometry">
            <mxPoint x="55" y="300" as="sourcePoint" />
            <Array as="points">
              <mxPoint x="85" y="300" />
            </Array>
          </mxGeometry>
        </mxCell>
        <mxCell id="3nuBFxr9cyL0pnOWT2aG-9" value="是否绑定" style="verticalAlign=bottom;endArrow=block;entryX=1;entryY=0;shadow=0;strokeWidth=1;" parent="1" source="3nuBFxr9cyL0pnOWT2aG-6" target="3nuBFxr9cyL0pnOWT2aG-4" edge="1">
          <mxGeometry relative="1" as="geometry">
            <mxPoint x="240" y="200" as="sourcePoint" />
          </mxGeometry>
        </mxCell>
        <mxCell id="3nuBFxr9cyL0pnOWT2aG-10" value="return true" style="verticalAlign=bottom;endArrow=open;dashed=1;endSize=8;exitX=1;exitY=0.95;shadow=0;strokeWidth=1;" parent="1" source="3nuBFxr9cyL0pnOWT2aG-4" target="3nuBFxr9cyL0pnOWT2aG-6" edge="1">
          <mxGeometry relative="1" as="geometry">
            <mxPoint x="240" y="257" as="targetPoint" />
          </mxGeometry>
        </mxCell>
        <mxCell id="Byw5GEfazyU8JiE87-R9-1" value="场景聚合页(落地页)" style="shape=umlLifeline;perimeter=lifelinePerimeter;container=1;collapsible=0;recursiveResize=0;rounded=0;shadow=0;strokeWidth=1;" parent="1" vertex="1">
          <mxGeometry x="480" y="80" width="100" height="650" as="geometry" />
        </mxCell>
        <mxCell id="Byw5GEfazyU8JiE87-R9-2" value="" style="points=[];perimeter=orthogonalPerimeter;rounded=0;shadow=0;strokeWidth=1;" parent="Byw5GEfazyU8JiE87-R9-1" vertex="1">
          <mxGeometry x="45" y="90" width="10" height="340" as="geometry" />
        </mxCell>
        <mxCell id="Byw5GEfazyU8JiE87-R9-20" value="" style="html=1;points=[];perimeter=orthogonalPerimeter;" parent="Byw5GEfazyU8JiE87-R9-1" vertex="1">
          <mxGeometry x="45.05" y="507" width="10" height="100" as="geometry" />
        </mxCell>
        <mxCell id="Byw5GEfazyU8JiE87-R9-21" value="点击&quot;确认完成&quot;按钮&lt;br&gt;状态变成&quot;已完成&quot;&lt;br&gt;分类变成“已完成”" style="edgeStyle=orthogonalEdgeStyle;html=1;align=left;spacingLeft=2;endArrow=block;rounded=0;entryX=1;entryY=0;" parent="Byw5GEfazyU8JiE87-R9-1" target="Byw5GEfazyU8JiE87-R9-20" edge="1">
          <mxGeometry relative="1" as="geometry">
            <mxPoint x="50.05" y="487" as="sourcePoint" />
            <Array as="points">
              <mxPoint x="75.05" y="487" />
            </Array>
          </mxGeometry>
        </mxCell>
        <mxCell id="Byw5GEfazyU8JiE87-R9-32" value="" style="html=1;points=[];perimeter=orthogonalPerimeter;" parent="Byw5GEfazyU8JiE87-R9-1" vertex="1">
          <mxGeometry x="45.05" y="627" width="10" height="40" as="geometry" />
        </mxCell>
        <mxCell id="Byw5GEfazyU8JiE87-R9-33" value="按状态和更新时间排序" style="edgeStyle=orthogonalEdgeStyle;html=1;align=left;spacingLeft=2;endArrow=block;rounded=0;entryX=1;entryY=0;" parent="Byw5GEfazyU8JiE87-R9-1" target="Byw5GEfazyU8JiE87-R9-32" edge="1">
          <mxGeometry relative="1" as="geometry">
            <mxPoint x="50.05" y="607" as="sourcePoint" />
            <Array as="points">
              <mxPoint x="75.05" y="607" />
            </Array>
          </mxGeometry>
        </mxCell>
        <mxCell id="Byw5GEfazyU8JiE87-R9-3" value="负一屏" style="shape=umlLifeline;perimeter=lifelinePerimeter;container=1;collapsible=0;recursiveResize=0;rounded=0;shadow=0;strokeWidth=1;" parent="1" vertex="1">
          <mxGeometry x="660" y="80" width="100" height="640" as="geometry" />
        </mxCell>
        <mxCell id="Byw5GEfazyU8JiE87-R9-4" value="" style="points=[];perimeter=orthogonalPerimeter;rounded=0;shadow=0;strokeWidth=1;" parent="Byw5GEfazyU8JiE87-R9-3" vertex="1">
          <mxGeometry x="45" y="80" width="10" height="290" as="geometry" />
        </mxCell>
        <mxCell id="Byw5GEfazyU8JiE87-R9-5" value="下发数据" style="html=1;verticalAlign=bottom;endArrow=block;" parent="1" source="3nuBFxr9cyL0pnOWT2aG-2" target="3nuBFxr9cyL0pnOWT2aG-6" edge="1">
          <mxGeometry width="80" relative="1" as="geometry">
            <mxPoint x="180" y="320" as="sourcePoint" />
            <mxPoint x="250" y="310" as="targetPoint" />
            <Array as="points">
              <mxPoint x="260" y="280" />
            </Array>
          </mxGeometry>
        </mxCell>
        <mxCell id="Byw5GEfazyU8JiE87-R9-8" value="下发&quot;运输中&quot;等收件状态" style="html=1;verticalAlign=bottom;endArrow=block;exitX=0.967;exitY=0.423;exitDx=0;exitDy=0;exitPerimeter=0;entryX=-0.063;entryY=0.974;entryDx=0;entryDy=0;entryPerimeter=0;" parent="1" target="Byw5GEfazyU8JiE87-R9-6" edge="1" source="3nuBFxr9cyL0pnOWT2aG-2">
          <mxGeometry x="-0.0004" width="80" relative="1" as="geometry">
            <mxPoint x="177.88000000000017" y="352.77" as="sourcePoint" />
            <mxPoint x="340" y="378" as="targetPoint" />
            <Array as="points" />
            <mxPoint as="offset" />
          </mxGeometry>
        </mxCell>
        <mxCell id="Byw5GEfazyU8JiE87-R9-12" value="手动确认签收" style="html=1;verticalAlign=bottom;endArrow=open;dashed=1;endSize=8;" parent="1" edge="1">
          <mxGeometry relative="1" as="geometry">
            <mxPoint x="344.05" y="430" as="sourcePoint" />
            <mxPoint x="175.05" y="430" as="targetPoint" />
            <Array as="points">
              <mxPoint x="210.05" y="430" />
              <mxPoint x="190.05" y="430" />
            </Array>
          </mxGeometry>
        </mxCell>
        <mxCell id="Byw5GEfazyU8JiE87-R9-15" value="下发寄件状态" style="html=1;verticalAlign=bottom;endArrow=block;entryX=0.02;entryY=0.65;entryDx=0;entryDy=0;entryPerimeter=0;exitX=0.995;exitY=0.638;exitDx=0;exitDy=0;exitPerimeter=0;" parent="1" target="Byw5GEfazyU8JiE87-R9-13" edge="1">
          <mxGeometry width="80" relative="1" as="geometry">
            <mxPoint x="175.00000000000006" y="483.24" as="sourcePoint" />
            <mxPoint x="345.05" y="470" as="targetPoint" />
            <Array as="points" />
          </mxGeometry>
        </mxCell>
        <mxCell id="Byw5GEfazyU8JiE87-R9-18" value="&lt;span style=&quot;text-align: left&quot;&gt;置于聚合页已完成栏中&lt;/span&gt;" style="html=1;verticalAlign=bottom;endArrow=block;entryX=-0.066;entryY=0.749;entryDx=0;entryDy=0;entryPerimeter=0;" parent="1" edge="1">
          <mxGeometry width="80" relative="1" as="geometry">
            <mxPoint x="356.05" y="474" as="sourcePoint" />
            <mxPoint x="524.3900000000001" y="474.1300000000001" as="targetPoint" />
          </mxGeometry>
        </mxCell>
        <mxCell id="Byw5GEfazyU8JiE87-R9-19" value="&lt;span style=&quot;text-align: left&quot;&gt;聚合页归类到“进行中”&lt;/span&gt;&lt;br style=&quot;text-align: left&quot;&gt;&lt;span style=&quot;text-align: left&quot;&gt;显示“确认完成&quot;按钮&lt;/span&gt;" style="html=1;verticalAlign=bottom;endArrow=block;" parent="1" source="Byw5GEfazyU8JiE87-R9-16" edge="1">
          <mxGeometry width="80" relative="1" as="geometry">
            <mxPoint x="355.05" y="547" as="sourcePoint" />
            <mxPoint x="525.05" y="559" as="targetPoint" />
          </mxGeometry>
        </mxCell>
        <mxCell id="Byw5GEfazyU8JiE87-R9-22" value="主界面立即消失" style="html=1;verticalAlign=bottom;endArrow=open;dashed=1;endSize=8;exitX=0.1;exitY=0.095;exitDx=0;exitDy=0;exitPerimeter=0;entryX=1.014;entryY=0.731;entryDx=0;entryDy=0;entryPerimeter=0;" parent="1" source="Byw5GEfazyU8JiE87-R9-20" target="Byw5GEfazyU8JiE87-R9-16" edge="1">
          <mxGeometry x="0.0067" relative="1" as="geometry">
            <mxPoint x="520.05" y="597" as="sourcePoint" />
            <mxPoint x="440.05" y="597" as="targetPoint" />
            <mxPoint as="offset" />
          </mxGeometry>
        </mxCell>
        <mxCell id="Byw5GEfazyU8JiE87-R9-24" value="同步收寄状态" style="html=1;verticalAlign=bottom;endArrow=block;exitX=0.965;exitY=0.539;exitDx=0;exitDy=0;exitPerimeter=0;entryX=-0.074;entryY=0.837;entryDx=0;entryDy=0;entryPerimeter=0;" parent="1" edge="1">
          <mxGeometry width="80" relative="1" as="geometry">
            <mxPoint x="534.7" y="360.18000000000006" as="sourcePoint" />
            <mxPoint x="704.3100000000002" y="360" as="targetPoint" />
          </mxGeometry>
        </mxCell>
        <mxCell id="Byw5GEfazyU8JiE87-R9-26" value="下发多条数据" style="html=1;verticalAlign=bottom;endArrow=block;exitX=1.006;exitY=0.923;exitDx=0;exitDy=0;exitPerimeter=0;" parent="1" target="Byw5GEfazyU8JiE87-R9-16" edge="1">
          <mxGeometry width="80" relative="1" as="geometry">
            <mxPoint x="175.11000000000018" y="620.04" as="sourcePoint" />
            <mxPoint x="340.05" y="617" as="targetPoint" />
          </mxGeometry>
        </mxCell>
        <mxCell id="F76CEWl78mpnGewwUQ9f-6" value="同步UI显示" style="html=1;verticalAlign=bottom;endArrow=block;exitX=1.03;exitY=0.645;exitDx=0;exitDy=0;exitPerimeter=0;entryX=-0.039;entryY=0.733;entryDx=0;entryDy=0;entryPerimeter=0;" edge="1" parent="1" source="F76CEWl78mpnGewwUQ9f-1" target="Byw5GEfazyU8JiE87-R9-2">
          <mxGeometry width="80" relative="1" as="geometry">
            <mxPoint x="360" y="420" as="sourcePoint" />
            <mxPoint x="520" y="420" as="targetPoint" />
          </mxGeometry>
        </mxCell>
        <mxCell id="F76CEWl78mpnGewwUQ9f-7" value="同步UI显示" style="html=1;verticalAlign=bottom;endArrow=block;exitX=1.035;exitY=0.75;exitDx=0;exitDy=0;exitPerimeter=0;entryX=0.008;entryY=0.915;entryDx=0;entryDy=0;entryPerimeter=0;" edge="1" parent="1" source="Byw5GEfazyU8JiE87-R9-2" target="Byw5GEfazyU8JiE87-R9-4">
          <mxGeometry width="80" relative="1" as="geometry">
            <mxPoint x="540" y="420" as="sourcePoint" />
            <mxPoint x="699" y="420" as="targetPoint" />
          </mxGeometry>
        </mxCell>
      </root>
    </mxGraphModel>
  </diagram>
</mxfile>
